<svg xmlns="http://www.w3.org/2000/svg" width="480" height="320" fill="none" xmlns:v="https://vecta.io/nano"><path fill="#000" d="M0 0h480v320H0z"/><path d="M209 186.875h25.25v18.875H209V248h-23.25v-42.25h-82.875v-13.625L184.375 66H209v120.875zm-79.875 0h56.625v-89.25l-2.75 5-53.875 84.25zM374.375 248h-119.25v-16.625l63-70c9.333-10.583 15.75-19.167 19.25-25.75 3.583-6.667 5.375-13.542 5.375-20.625 0-9.5-2.875-17.292-8.625-23.375s-13.417-9.125-23-9.125c-11.5 0-20.458 3.292-26.875 9.875-6.333 6.5-9.5 15.583-9.5 27.25h-23.125c0-16.75 5.375-30.292 16.125-40.625 10.833-10.333 25.292-15.5 43.375-15.5 16.917 0 30.292 4.458 40.125 13.375C361.083 85.708 366 97.5 366 112.25c0 17.917-11.417 39.25-34.25 64L283 229.125h91.375V248z" fill="#2f4f4f"/><path d="M114.782 222.003L100.64 245.37l-.386-13.169L88 227.363l26.782-5.36z" fill="#fff"/><path d="M338.97 127.036c1.571 2.616 26.586 16.369 29.304 13.597 1.075-1.097 5.847-3.5 7.523-3.5 4.868 0 13.171-6.545 16.632-4.78.641.327 6.114-4.282 5.607-3.766-.989 1.01-1.281-7.426 6.471-11.379 7.215-3.679 19.475-33.718 10.097-43.282-.972-.992 1.949-2.926 1.254-3.635-5.776-5.892-11.504-13.553-18.15-20.33-4.131-4.213-9.374-3.636-19.272-8.684-2.684-1.369-12.393 2.773-12.605 2.558-.49-.499-13.447-1.095-13.464-1.077-5.301 5.406-15.988 10.651-19.733 14.472-2.574 2.625-.763 9.325-3.3 11.914-2.29 2.336-5.742 4.14-5.742 8.683 0 3.082-8.384 19.856-4.62 23.694 7.991 8.15 14.827 17.308 19.997 25.512l.001.002zm108.466 118.242c9.898 5.048 15.141 4.47 19.272 8.683 4.786 4.882 9.097 10.221 13.292 15.028V313c-1.637 3.033-3.236 5.502-4.843 7h-13.728H439h-26.5-12.143c-3.695-4.912-7.854-9.857-12.385-14.478-3.764-3.838 4.62-20.612 4.62-23.694 0-4.543 3.452-6.348 5.742-8.683 2.537-2.589.726-9.289 3.3-11.914 3.745-3.821 14.432-9.067 19.733-14.472.017-.018 12.974.578 13.464 1.077.212.216 9.921-3.927 12.605-2.558zM47.448 53.695c-1.179.969-6.141 14.352-4.571 15.492.622.451 2.161 2.635 2.284 3.464.358 2.407 4.205 6.032 3.586 7.874-.115.341 2.567 2.709 2.275 2.496-.572-.415 3.579-1.18 6.103 2.364 2.35 3.298 18.107 7.154 22.148 1.812.419-.554 1.59.749 1.89.353 2.489-3.29 5.857-6.686 8.72-10.471 1.78-2.353 1.109-4.903 2.878-10.169.48-1.428-2.283-5.926-2.192-6.046.211-.279-.447-6.73-.457-6.738-3.063-2.224-6.443-7.124-8.608-8.696-1.487-1.08-4.668.308-6.135-.756-1.323-.961-2.47-2.535-4.717-2.201-1.524.227-10.436-2.687-12.058-.543-3.443 4.551-7.47 8.605-11.148 11.765h-.001zm250.228 183.977c.935.517 10.923.3 11.261-1.016.134-.521 1.158-2.085 1.666-2.379 1.475-.853 2.843-4.291 4.201-4.363.252-.013 1.102-2.369 1.039-2.123-.123.479-1.69-2.026-.034-4.582 1.542-2.379-.008-13.628-4.526-14.882-.468-.13.078-1.228-.257-1.321-2.782-.773-5.86-2.09-9.061-2.979-1.99-.552-3.477.541-7.361.747-1.053.055-3.268 3.012-3.37 2.984-.236-.066-4.266 2.024-4.268 2.033-.659 2.566-2.977 6.028-3.443 7.843-.319 1.246 1.404 2.958 1.088 4.187-.284 1.109-1.014 2.261-.217 3.637.54.934.939 7.485 2.752 7.988 3.849 1.069 7.525 2.646 10.53 4.225v.001zm-247.11-77.595c-.247-.179-3.087-.467-3.229-.106-.056.143-.401.551-.556.616-.448.191-.956 1.118-1.344 1.091-.072-.005-.395.633-.369.565.052-.131.408.634-.151 1.301-.52.62-.474 3.865.763 4.378.128.054-.065.346.027.384l2.465 1.161c.545.227 1.005-.031 2.113.046.3.021 1.032-.74 1.06-.728.065.027 1.28-.425 1.281-.427.277-.705 1.055-1.606 1.251-2.104.134-.342-.294-.888-.162-1.225.119-.305.367-.606.189-1.024-.12-.284-.005-2.155-.501-2.362a15.52 15.52 0 0 1-2.838-1.566h0zm-6.051 135.475c-.543-.395-6.791-1.028-7.103-.233-.123.314-.883 1.212-1.222 1.356-.986.418-2.104 2.458-2.957 2.398-.158-.011-.87 1.393-.811 1.245.113-.29.898 1.393-.332 2.861-1.144 1.365-1.043 8.502 1.678 9.632.282.117-.143.76.059.844l5.424 2.556c1.199.497 2.211-.07 4.649.1.661.047 2.271-1.627 2.333-1.602.142.059 2.817-.935 2.819-.94.608-1.55 2.321-3.532 2.751-4.628.296-.752-.648-1.953-.356-2.696.263-.67.806-1.332.416-2.252-.265-.624-.01-4.742-1.103-5.195-2.319-.963-4.491-2.23-6.244-3.446h0zm421.54-138.275c1.187-.485 8.496-9.989 7.52-11.294-.387-.517-1.079-2.651-.972-3.347.312-2.02-1.873-5.886-.919-7.21.177-.245-1.386-2.812-1.204-2.568.355.475-3.165.056-4.31-3.414-1.065-3.231-12.749-10.243-17.32-6.962-.473.34-1.089-.996-1.428-.753-2.815 2.02-6.362 3.908-9.6 6.233-2.014 1.445-2.11 3.658-4.838 7.443-.74 1.027.358 5.323.255 5.397-.239.171-1.316 5.511-1.309 5.519 1.904 2.547 3.398 7.318 4.744 9.118.925 1.236 3.822.913 4.734 2.132.823 1.1 1.351 2.649 3.237 2.939 1.279.198 7.705 4.751 9.54 3.435 3.894-2.796 8.133-5.047 11.87-6.668h0zM218.806 96.66c-.957 1.027-3.86 13.833-2.29 14.682.622.337 2.291 2.141 2.504 2.882.618 2.152 4.566 4.992 4.225 6.746-.063.325 2.67 2.159 2.377 2.001-.572-.309 3.121-1.51 5.853 1.416 2.543 2.722 17.381 4.328 20.418-1.033.315-.556 1.541.49 1.766.092 1.872-3.302 4.531-6.807 6.683-10.606 1.339-2.361.417-4.606 1.392-9.623.264-1.361-2.8-5.127-2.732-5.249.158-.28-1.224-6.084-1.234-6.089-3.063-1.657-6.739-5.716-8.904-6.886-1.488-.805-4.22.847-5.687.054-1.323-.716-2.56-2.013-4.568-1.436-1.363.391-9.844-1.185-11.063.967-2.588 4.568-5.769 8.754-8.739 12.082l-.001.001z" fill="#d3d3d3"/><g fill="#fea500"><circle cx="180.5" cy="124.5" r="2.5"/><circle cx="175.5" cy="169.5" r="2.5"/><circle cx="279.5" cy="149.5" r="2.5"/><circle cx="384.5" cy="262.5" r="2.5"/><circle cx="230.5" cy="233.5" r="2.5"/><circle cx="230.5" cy="43.5" r="2.5"/></g></svg>