<svg xmlns="http://www.w3.org/2000/svg" xmlns:xlink="http://www.w3.org/1999/xlink" width="480" height="320" fill="none" xmlns:v="https://vecta.io/nano"><style><![CDATA[.B{fill-rule:evenodd}.C{stroke-linejoin:round}.D{stroke-width:1.5}.E{stroke-linecap:round}.F{stroke:#000}.G{fill:#fff}.H{fill:#000}.I{stroke:#fff}]]></style><path fill="#e5e5e5" d="M0 0h480v320H0z"/><path fill="tan" d="M80 0h320v320H80z"/><g fill="#8b4513"><path d="M80 280h40v40H80z"/><path d="M120 240h40v40h-40z"/><path d="M80 200h40v40H80z"/><path d="M120 160h40v40h-40z"/><path d="M80 120h40v40H80z"/><path d="M120 80h40v40h-40z"/><path d="M80 40h40v40H80z"/><path d="M120 0h40v40h-40zm40 280h40v40h-40z"/><path d="M200 240h40v40h-40z"/><path d="M160 200h40v40h-40z"/><path d="M200 160h40v40h-40z"/><path d="M160 120h40v40h-40z"/><path d="M200 80h40v40h-40z"/><path d="M160 40h40v40h-40z"/><path d="M200 0h40v40h-40zm40 280h40v40h-40z"/><path d="M280 240h40v40h-40z"/><path d="M240 200h40v40h-40z"/><path d="M280 160h40v40h-40z"/><path d="M240 120h40v40h-40z"/><path d="M280 80h40v40h-40z"/><path d="M240 40h40v40h-40z"/><path d="M280 0h40v40h-40zm40 280h40v40h-40z"/><path d="M360 240h40v40h-40z"/><path d="M320 200h40v40h-40z"/><path d="M360 160h40v40h-40z"/><path d="M320 120h40v40h-40z"/><path d="M360 80h40v40h-40z"/><path d="M320 40h40v40h-40z"/><path d="M360 0h40v40h-40z"/></g><g class="H"><g class="D F"><use xlink:href="#B"/><path d="M99.5 45a4 4 0 0 0-4 4c0 .89.29 1.71.78 2.38C94.33 52.5 93 54.59 93 57c0 2.03.94 3.84 2.41 5.03-3 1.06-7.41 5.55-7.41 13.47h23c0-7.92-4.41-12.41-7.41-13.47 1.47-1.19 2.41-3 2.41-5.03 0-2.41-1.33-4.5-3.28-5.62.49-.67.78-1.49.78-2.38a4 4 0 0 0-4-4zm40 0a4 4 0 0 0-4 4c0 .89.29 1.71.78 2.38C134.33 52.5 133 54.59 133 57c0 2.03.94 3.84 2.41 5.03-3 1.06-7.41 5.55-7.41 13.47h23c0-7.92-4.41-12.41-7.41-13.47 1.47-1.19 2.41-3 2.41-5.03 0-2.41-1.33-4.5-3.28-5.62.49-.67.78-1.49.78-2.38a4 4 0 0 0-4-4zm80 0a4 4 0 0 0-4 4c0 .89.29 1.71.78 2.38C214.33 52.5 213 54.59 213 57c0 2.03.94 3.84 2.41 5.03-3 1.06-7.41 5.55-7.41 13.47h23c0-7.92-4.41-12.41-7.41-13.47 1.47-1.19 2.41-3 2.41-5.03 0-2.41-1.33-4.5-3.28-5.62.49-.67.78-1.49.78-2.38a4 4 0 0 0-4-4zm40 0a4 4 0 0 0-4 4c0 .89.29 1.71.78 2.38C254.33 52.5 253 54.59 253 57c0 2.03.94 3.84 2.41 5.03-3 1.06-7.41 5.55-7.41 13.47h23c0-7.92-4.41-12.41-7.41-13.47 1.47-1.19 2.41-3 2.41-5.03 0-2.41-1.33-4.5-3.28-5.62.49-.67.78-1.49.78-2.38a4 4 0 0 0-4-4zm40 0a4 4 0 0 0-4 4c0 .89.29 1.71.78 2.38C294.33 52.5 293 54.59 293 57c0 2.03.94 3.84 2.41 5.03-3 1.06-7.41 5.55-7.41 13.47h23c0-7.92-4.41-12.41-7.41-13.47 1.47-1.19 2.41-3 2.41-5.03 0-2.41-1.33-4.5-3.28-5.62.49-.67.78-1.49.78-2.38a4 4 0 0 0-4-4zm40 0a4 4 0 0 0-4 4c0 .89.29 1.71.78 2.38C334.33 52.5 333 54.59 333 57c0 2.03.94 3.84 2.41 5.03-3 1.06-7.41 5.55-7.41 13.47h23c0-7.92-4.41-12.41-7.41-13.47 1.47-1.19 2.41-3 2.41-5.03 0-2.41-1.33-4.5-3.28-5.62.49-.67.78-1.49.78-2.38a4 4 0 0 0-4-4zm40 0a4 4 0 0 0-4 4c0 .89.29 1.71.78 2.38C374.33 52.5 373 54.59 373 57c0 2.03.94 3.84 2.41 5.03-3 1.06-7.41 5.55-7.41 13.47h23c0-7.92-4.41-12.41-7.41-13.47 1.47-1.19 2.41-3 2.41-5.03 0-2.41-1.33-4.5-3.28-5.62.49-.67.78-1.49.78-2.38a4 4 0 0 0-4-4z"/></g><use xlink:href="#C"/><use xlink:href="#C" x="8" y="-3"/><use xlink:href="#C" x="16.5" y="-4"/><use xlink:href="#C" x="25" y="-3"/><use xlink:href="#C" x="33"/><g class="B C D F"><path d="M126.75 102.75c8.5-1.5 21-1.5 27 0l2.5-12.5-7.5 11.5-.3-14.1-5.2 13.6-3-14.5-3 14.5-5.2-13.6-.3 14.1-7.5-11.5 2.5 12.5z"/><use xlink:href="#D"/></g></g><path d="M128.75 115.25a35 35 0 0 0 23 0" class="C D F"/><path d="M128.75 105.75a35 35 0 0 1 23 0m-21.5 2.5h20m-21 3c7.143 2.365 14.857 2.365 22 0m-23 3c7.75 2.829 16.25 2.829 24 0" class="E I C D"/><g class="F D"><path d="M259.673 8.63V3" class="E"/><g class="B H"><path d="M259.673 22s4.5-7.5 3-10.5c0 0-1-2.5-3-2.5s-3 2.5-3 2.5c-1.5 3 3 10.5 3 10.5z"/><path d="M248.673 34c5.5 3.5 15.5 3.5 21 0v-7s9-4.5 6-10.5c-4-6.5-13.5-3.5-16 4V24v-3.5c-3.5-7.5-13-10.5-16-4-3 6 5 10 5 10V34z" class="C"/></g><path d="M257.173 5h5" class="E"/></g><g class="C D"><g class="I E"><path d="M269.173 26.5s8.5-4 6.03-9.65c-3.88-5.85-13.03-1.85-15.53 4.65l.01 2.1-.01-2.1c-2.5-6.5-12.594-10.5-15.503-4.65-2.497 5.65 4.853 9 4.853 9"/><path d="M248.673 34c5.5-3 15.5-3 21 0m-21-7c5.5-3 15.5-3 21 0h-21zm0 3.5c5.5-3 15.5-3 21 0h-21z"/></g><g class="B F H"><use xlink:href="#E"/><use xlink:href="#F"/><use xlink:href="#G"/></g></g><use xlink:href="#H" class="D E I"/><g class="B C F H D"><use xlink:href="#E" x="-120" y="1"/><use xlink:href="#F" x="-120" y="1"/><use xlink:href="#G" x="-120" y="1"/></g><use xlink:href="#H" x="-120" y="1" class="D E I"/><use xlink:href="#I" class="B H"/><use xlink:href="#I" class="C D E F"/><use xlink:href="#J" class="B H"/><g class="C D"><use xlink:href="#J" class="E F"/><g class="B G I"><use xlink:href="#K"/><use xlink:href="#L"/></g></g><use xlink:href="#M" class="B G"/><use xlink:href="#I" x="-200" class="B H"/><use xlink:href="#I" x="-200" class="C D E F"/><use xlink:href="#J" x="-200" class="B H"/><g class="C D"><use xlink:href="#J" x="-200" class="E F"/><g class="B G I"><use xlink:href="#K" x="-200"/><use xlink:href="#N"/></g></g><use xlink:href="#M" x="-200" class="B G"/><g class="D F H B"><g class="C"><path d="M366 35h27v-3h-27v3zm3.5-7l1.5-2.5h17l1.5 2.5h-20z"/><path d="M369 32v-4h21v4h-21z"/></g><path d="M371 25.5v-13h17v13h-17z"/><g class="C"><path d="M371 12.5l-3-2.5h23l-3 2.5h-17z"/><path d="M368 10V5h4v2h5V5h5v2h5V5h4v5h-23z"/></g></g><path d="M369 31.5h21m-20-4h19m-18-2h17m-17-13h17M368 10h23" class="E I"/><g class="B D F H"><g class="C"><path d="M86 35h27v-3H86v3zm3.5-7l1.5-2.5h17l1.5 2.5h-20z"/><path d="M89 32v-4h21v4H89z"/></g><path d="M91 25.5v-13h17v13H91z"/><g class="C"><path d="M91 12.5L88 10h23l-3 2.5H91z"/><path d="M88 10V5h4v2h5V5h5v2h5V5h4v5H88z"/></g></g><path d="M89 31.5h21m-20-4h19m-18-2h17m-17-13h17M88 10h23" class="E I"/><g class="D F"><g class="G"><use xlink:href="#B" x="200" y="120"/><use xlink:href="#B" x="160" y="120"/><use xlink:href="#B" x="120" y="120"/><use xlink:href="#B" x="80" y="40"/><use xlink:href="#B" x="40" y="120"/><use xlink:href="#B" y="120"/><use xlink:href="#B" x="-40" y="120"/><path d="M99.5 245a4 4 0 0 0-4 4c0 .89.29 1.71.78 2.38C94.33 252.5 93 254.59 93 257c0 2.03.94 3.84 2.41 5.03-3 1.06-7.41 5.55-7.41 13.47h23c0-7.92-4.41-12.41-7.41-13.47 1.47-1.19 2.41-3 2.41-5.03 0-2.41-1.33-4.5-3.28-5.62.49-.67.78-1.49.78-2.38a4 4 0 0 0-4-4z"/></g><g class="E"><path d="M259.673 288.63V283"/><path d="M257.173 285h5"/></g><g class="B G"><path d="M259.673 302s4.5-7.5 3-10.5c0 0-1-2.5-3-2.5s-3 2.5-3 2.5c-1.5 3 3 10.5 3 10.5z"/><path d="M248.673 314c5.5 3.5 15.5 3.5 21 0v-7s9-4.5 6-10.5c-4-6.5-13.5-3.5-16 4v3.5-3.5c-3.5-7.5-13-10.5-16-4-3 6 5 10 5 10v7.5z" class="C"/></g><path d="M248.673 307c5.5-3 15.5-3 21 0m-21 3.5c5.5-3 15.5-3 21 0m-21 3.5c5.5-3 15.5-3 21 0" class="E C"/><g class="B G C"><use xlink:href="#O"/><use xlink:href="#O" x="16.5" y="-4.5"/><use xlink:href="#O" x="33"/><use xlink:href="#O" x="8" y="-3.5"/><use xlink:href="#O" x="25" y="-3"/><path d="M206 303.5c8.5-1.5 21-1.5 27 0l2-12-7 11v-14l-5.5 13.5-3-15-3 15-5.5-14v14.5l-7-11 2 12z"/><use xlink:href="#D" x="79.25" y="200.75"/></g><path d="M208.5 307.5c3.5-1 18.5-1 22 0M209 311c6-1 15-1 21 0" class="E C"/><g class="B G C"><use xlink:href="#E" x="-120" y="281"/><use xlink:href="#F" x="-120" y="281"/><use xlink:href="#G" x="-120" y="281"/></g><use xlink:href="#H" x="-120" y="281" class="E"/><g class="B C G"><use xlink:href="#E" x="-120" y="161"/><use xlink:href="#F" x="-120" y="161"/><use xlink:href="#G" x="-120" y="161"/></g><use xlink:href="#H" x="-120" y="161" class="E"/></g><use xlink:href="#I" x="-200" y="280" class="B G"/><use xlink:href="#I" x="-200" y="280" class="C D E F"/><use xlink:href="#J" x="-200" y="280" class="B G"/><g class="C D F"><use xlink:href="#J" x="-200" y="280" class="E"/><g class="B H"><use xlink:href="#P"/><use xlink:href="#N" y="280"/></g></g><use xlink:href="#I" x="-40" y="200" class="B G"/><use xlink:href="#I" x="-40" y="200" class="C D E F"/><use xlink:href="#J" x="-40" y="200" class="B G"/><g class="C D F"><use xlink:href="#J" x="-40" y="200" class="E"/><g class="B H"><use xlink:href="#P" x="160" y="-80"/><use xlink:href="#L" x="-40" y="200"/></g><g class="G B"><path d="M86 315h27v-3H86v3z"/><path d="M89 312v-4h21v4H89z"/></g></g><path d="M88 290v-5h4v2h5v-2h5v2h5v-2h4v5" class="B G"/><path d="M88 290v-5h4v2h5v-2h5v2h5v-2h4v5" class="C D F"/><path d="M111 290l-3 3H91l-3-3" class="B G"/><path d="M111 290l-3 3H91l-3-3" class="C D E F"/><path d="M108 293v12.5H91V293" class="B G"/><path d="M108 293v12.5H91V293" class="D F"/><path d="M108 305.5l1.5 2.5h-20l1.5-2.5" class="B G"/><g class="D F"><g class="E"><path d="M108 305.5l1.5 2.5h-20l1.5-2.5" class="C"/><path d="M88 290h23"/></g><g class="B C G"><path d="M366 315h27v-3h-27v3z"/><path d="M369 312v-4h21v4h-21z"/></g></g><path d="M368 290v-5h4v2h5v-2h5v2h5v-2h4v5" class="B G"/><path d="M368 290v-5h4v2h5v-2h5v2h5v-2h4v5" class="C D F"/><path d="M391 290l-3 3h-17l-3-3" class="B G"/><path d="M391 290l-3 3h-17l-3-3" class="C D E F"/><path d="M388 293v12.5h-17V293" class="B G"/><path d="M388 293v12.5h-17V293" class="D F"/><path d="M388 305.5l1.5 2.5h-20l1.5-2.5" class="B G"/><g class="D E F"><path d="M388 305.5l1.5 2.5h-20l1.5-2.5" class="C"/><path d="M368 290h23"/></g><defs ><path id="B" d="M179.5 125a4 4 0 0 0-4 4c0 .89.29 1.71.78 2.38-1.95 1.12-3.28 3.21-3.28 5.62 0 2.03.94 3.84 2.41 5.03-3 1.06-7.41 5.55-7.41 13.47h23c0-7.92-4.41-12.41-7.41-13.47 1.47-1.19 2.41-3 2.41-5.03 0-2.41-1.33-4.5-3.28-5.62.49-.67.78-1.49.78-2.38a4 4 0 0 0-4-4z"/><path id="C" d="M123.75 91.5a2.75 2.75 0 1 0 0-5.5 2.75 2.75 0 1 0 0 5.5z"/><path id="D" d="M126.75 102.75c0 2 1.5 2 2.5 4 1 1.5 1 1 .5 3.5-1.5 1-1.5 2.5-1.5 2.5-1.5 1.5.5 2.5.5 2.5 6.5 1 16.5 1 23 0 0 0 1.5-1 0-2.5 0 0 .5-1.5-1-2.5-.5-2.5-.5-2 .5-3.5 1-2 2.5-2 2.5-4-8.5-1.5-18.5-1.5-27 0z"/><path id="E" d="M286 32.5c3.39-.97 10.11.43 13.5-2 3.39 2.43 10.11 1.03 13.5 2 0 0 1.65.54 3 2-.68.97-1.65.99-3 .5-3.39-.97-10.11.46-13.5-1-3.39 1.46-10.11.03-13.5 1-1.354.49-2.323.47-3-.5 1.354-1.94 3-2 3-2z"/><path id="F" d="M292 28.5c2.5 2.5 12.5 2.5 15 0 .5-1.5 0-2 0-2 0-2.5-2.5-4-2.5-4 5.5-1.5 6-11.5-5-15.5-11 4-10.5 14-5 15.5 0 0-2.5 1.5-2.5 4 0 0-.5.5 0 2z"/><path id="G" d="M302 4.5a2.5 2.5 0 0 1-2.5 2.5 2.5 2.5 0 0 1-2.5-2.5 2.5 2.5 0 0 1 2.5-2.5 2.5 2.5 0 0 1 2.5 2.5h0z"/><path id="H" d="M297 14.5h5m-7.5 8h10-10zm-2.5 4h15-15zm7.5-14.5v5-5z"/><path id="I" d="M340 7c10.5 1 16.5 8 16 29h-23c0-9 10-6.5 8-21"/><path id="J" d="M342 15c.38 2.91-5.55 7.37-8 9-3 2-2.82 4.34-5 4-1.042-.94 1.41-3.04 0-3-1 0 .19 1.23-1 2-1 0-4.003 1-4-4 0-2 6-12 6-12s1.89-1.9 2-3.5c-.73-.994-.5-2-.5-3 1-1 3 2.5 3 2.5h2s.78-1.992 2.5-3c1 0 1 3 1 3"/><path id="K" d="M327.5 22.5c0 .133-.053.26-.146.354a.5.5 0 0 1-.708 0c-.093-.094-.146-.221-.146-.354s.053-.26.146-.354a.5.5 0 0 1 .708 0c.093.094.146.221.146.354z"/><path id="L" d="M332.933 12.75c-.199.345-.435.649-.657.845s-.411.27-.526.204-.146-.267-.086-.557.204-.647.403-.992.435-.649.657-.845.411-.27.526-.204.146.267.087.557-.205.647-.404.992h0z"/><path id="M" d="M342.55 7.4l-.45 1.45.5.15c3.15 1 5.65 2.49 7.9 6.75s3.25 10.31 2.75 20.25l-.05.5h2.25l.05-.5c.5-10.06-.88-16.85-3.25-21.34s-5.79-6.64-9.19-7.16l-.51-.1z"/><path id="N" d="M132.933 12.75c-.199.345-.435.649-.657.845s-.411.27-.526.204-.146-.267-.087-.557.205-.647.404-.992.435-.649.657-.845.411-.27.526-.204.146.267.087.557-.205.647-.404.992h0z"/><path id="O" d="M205 289.5a2 2 0 0 1-2 2 2 2 0 0 1-2-2 2 2 0 0 1 2-2 2 2 0 0 1 2 2h0z"/><path id="P" d="M127.5 302.5c0 .133-.053.26-.146.354s-.221.146-.354.146-.26-.053-.354-.146-.146-.221-.146-.354.053-.26.146-.354.221-.146.354-.146.26.053.354.146.146.221.146.354z"/></defs></svg>