<svg xmlns="http://www.w3.org/2000/svg" xmlns:xlink="http://www.w3.org/1999/xlink" width="480" height="320" fill="none" xmlns:v="https://vecta.io/nano"><style><![CDATA[.B{fill:#e64c3c}.C{fill:#000}.D{fill:#fff}]]></style><path fill="#eee" d="M0 0h480v320H0z"/><path d="M280 39V0h199v279h-19v-40h-60v-39h40v-81h-40V99h-20V39H280zm100 240v-19h19v19h-19zm-240 40v-19h40v-20h19v39h-59zm80-40v-19h19v19h-19zm20-19.5V240l19.5-.5v-20H339v20h-60V259l-39 .5zM260 159v-19h39v19h-39zm-160 80v-19h39v19h-39zm40-20v-19h19v19h-19zM0 319v-39h19v39H0zm0-120v-19h39v19H0zm40-40v-39h19v20h40v19H40zm140-39v39h19v-39h-19zm20-21V80h39v19h-39zM80 19V0h79v59h-40v20h-19V19H80z" fill="#c4c4c4"/><g stroke="#fff"><path d="M0 19.5h480"/><path d="M19.5 320V0m20 320V0"/><path d="M59.5 320V0m-20 320V0m40 320V0m40 320V0m-20 320V0m40 320V0m40 320V0m-20 320V0m40 320V0m40 320V0m-20 320V0m40 320V0m40 320V0m-20 320V0m40 320V0m40 320V0m-20 320V0m40 320V0m40 320V0m-20 320V0m40 320V0m40 320V0m-20 320V0"/><path d="M0 39.5h480M0 59.5h480M0 79.5h480"/><path d="M0 79.5h480M0 99.5h480m-480 20h480m-480 20h480m-480 20h480m-480 20h480m-480 20h480m-480 20h480"/><path d="M0 219.5h480m-480 20h480m-480 20h480m-480 20h480"/><path d="M0 279.5h480m-480 20h480m-480 20h480"/></g><g clip-path="url(#A)"><path d="M93.535 11.444a4.93 4.93 0 0 1-3.547-1.406c-.823-.8-1.933-1.236-3.08-1.21-.966-.013-1.91.29-2.687.863a.57.57 0 0 1-.347.121c-.168-.001-.328-.075-.438-.203a.68.68 0 0 1-.167-.454V1.789a.68.68 0 0 1 .2-.481C84.407.45 85.637-.018 86.908.001a4.93 4.93 0 0 1 3.554 1.406 4.27 4.27 0 0 0 3.073 1.21 4.56 4.56 0 0 0 2.252-.572c.086-.052.184-.08.284-.082a.63.63 0 0 1 .602.654v7.438c.006.221-.1.43-.281.556-.849.556-1.843.846-2.857.834z" class="B"/><path d="M82.943.001c.361 0 .654.293.654.654v17.654c0 .361-.293.654-.654.654s-.654-.293-.654-.654V.655c0-.361.293-.654.654-.654z" class="C"/></g><g clip-path="url(#B)"><use xlink:href="#T" class="B"/><use xlink:href="#U" class="C"/></g><g clip-path="url(#C)"><path d="M293.535 31.444a4.93 4.93 0 0 1-3.547-1.406c-.822-.8-1.932-1.236-3.08-1.21-.965-.013-1.909.29-2.687.863a.57.57 0 0 1-.347.121c-.168-.001-.327-.075-.438-.203a.68.68 0 0 1-.166-.454v-7.366a.68.68 0 0 1 .199-.481c.938-.859 2.168-1.326 3.439-1.308a4.93 4.93 0 0 1 3.554 1.406 4.27 4.27 0 0 0 3.073 1.21 4.56 4.56 0 0 0 2.253-.572.57.57 0 0 1 .284-.082.63.63 0 0 1 .602.654v7.438c.006.221-.1.43-.281.556a5.11 5.11 0 0 1-2.858.834z" class="B"/><path d="M282.943 20.001c.361 0 .654.293.654.654v17.654c0 .361-.293.654-.654.654s-.654-.293-.654-.654V20.655c0-.361.292-.654.654-.654z" class="C"/></g><g clip-path="url(#D)"><use xlink:href="#V" class="B"/><use xlink:href="#W" class="C"/></g><g clip-path="url(#E)"><path d="M273.535 151.444c-1.323.027-2.601-.48-3.547-1.406-.822-.8-1.932-1.236-3.08-1.21-.965-.012-1.909.291-2.687.863-.099.078-.221.12-.347.121-.168-.001-.327-.075-.438-.202s-.168-.288-.166-.455v-7.366a.68.68 0 0 1 .199-.48 4.98 4.98 0 0 1 3.439-1.308 4.93 4.93 0 0 1 3.554 1.406 4.27 4.27 0 0 0 3.073 1.21c.788.007 1.564-.19 2.253-.573a.58.58 0 0 1 .284-.081.63.63 0 0 1 .602.654v7.437c.006.221-.1.43-.281.556-.849.555-1.844.846-2.858.834z" class="B"/><path d="M262.943 140.001c.361 0 .654.293.654.654v17.654c0 .361-.293.654-.654.654s-.654-.293-.654-.654v-17.654c0-.361.292-.654.654-.654z" class="C"/></g><g clip-path="url(#F)"><path d="M233.535 91.444a4.93 4.93 0 0 1-3.547-1.406c-.822-.8-1.932-1.236-3.08-1.21-.965-.013-1.909.29-2.687.863a.57.57 0 0 1-.347.121c-.168-.001-.327-.075-.438-.203a.68.68 0 0 1-.166-.454v-7.366a.68.68 0 0 1 .199-.481c.938-.859 2.168-1.326 3.439-1.308a4.93 4.93 0 0 1 3.554 1.406 4.27 4.27 0 0 0 3.073 1.21 4.56 4.56 0 0 0 2.253-.572.57.57 0 0 1 .284-.082.63.63 0 0 1 .602.654v7.438c.006.221-.1.43-.281.556a5.11 5.11 0 0 1-2.858.834z" class="B"/><path d="M222.943 80.001c.361 0 .654.293.654.654v17.654c0 .361-.293.654-.654.654s-.654-.293-.654-.654V80.655c0-.361.292-.654.654-.654z" class="C"/></g><g clip-path="url(#G)"><path d="M413.535 211.444c-1.323.027-2.601-.48-3.547-1.406-.822-.8-1.932-1.236-3.08-1.21-.965-.012-1.909.291-2.687.863-.099.078-.221.12-.347.121-.168-.001-.327-.075-.438-.202s-.168-.288-.166-.455v-7.366a.68.68 0 0 1 .199-.48 4.98 4.98 0 0 1 3.439-1.308 4.93 4.93 0 0 1 3.554 1.406 4.27 4.27 0 0 0 3.073 1.21c.788.007 1.564-.19 2.253-.573a.58.58 0 0 1 .284-.081.63.63 0 0 1 .602.654v7.437c.006.221-.1.43-.281.556-.849.555-1.844.846-2.858.834z" class="B"/><path d="M402.943 200.001c.361 0 .654.293.654.654v17.654c0 .361-.293.654-.654.654s-.654-.293-.654-.654v-17.654c0-.361.292-.654.654-.654z" class="C"/></g><g clip-path="url(#H)"><path d="M393.535 271.444c-1.323.027-2.601-.48-3.547-1.406-.822-.8-1.932-1.236-3.08-1.21-.965-.012-1.909.291-2.687.863-.099.078-.221.12-.347.121-.168-.001-.327-.075-.438-.202s-.168-.288-.166-.455v-7.366a.68.68 0 0 1 .199-.48 4.98 4.98 0 0 1 3.439-1.308 4.93 4.93 0 0 1 3.554 1.406 4.27 4.27 0 0 0 3.073 1.21c.788.007 1.564-.19 2.253-.573a.58.58 0 0 1 .284-.081.63.63 0 0 1 .602.654v7.437c.006.221-.1.43-.281.556-.849.555-1.844.846-2.858.834z" class="B"/><path d="M382.943 260.001c.361 0 .654.293.654.654v17.654c0 .361-.293.654-.654.654s-.654-.293-.654-.654v-17.654c0-.361.292-.654.654-.654z" class="C"/></g><g clip-path="url(#I)"><path d="M333.535 231.444c-1.323.027-2.601-.48-3.547-1.406-.822-.8-1.932-1.236-3.08-1.21-.965-.012-1.909.291-2.687.863-.099.078-.221.12-.347.121-.168-.001-.327-.075-.438-.202s-.168-.288-.166-.455v-7.366a.68.68 0 0 1 .199-.48 4.98 4.98 0 0 1 3.439-1.308 4.93 4.93 0 0 1 3.554 1.406 4.27 4.27 0 0 0 3.073 1.21c.788.007 1.564-.19 2.253-.573a.58.58 0 0 1 .284-.081.63.63 0 0 1 .602.654v7.437c.006.221-.1.43-.281.556-.849.555-1.844.846-2.858.834z" class="B"/><path d="M322.943 220.001c.361 0 .654.293.654.654v17.654c0 .361-.293.654-.654.654s-.654-.293-.654-.654v-17.654c0-.361.292-.654.654-.654z" class="C"/></g><g clip-path="url(#J)"><path d="M273.535 231.444c-1.323.027-2.601-.48-3.547-1.406-.822-.8-1.932-1.236-3.08-1.21-.965-.012-1.909.291-2.687.863-.099.078-.221.12-.347.121-.168-.001-.327-.075-.438-.202s-.168-.288-.166-.455v-7.366a.68.68 0 0 1 .199-.48 4.98 4.98 0 0 1 3.439-1.308 4.93 4.93 0 0 1 3.554 1.406 4.27 4.27 0 0 0 3.073 1.21c.788.007 1.564-.19 2.253-.573a.58.58 0 0 1 .284-.081.63.63 0 0 1 .602.654v7.437c.006.221-.1.43-.281.556-.849.555-1.844.846-2.858.834z" class="B"/><path d="M262.943 220.001c.361 0 .654.293.654.654v17.654c0 .361-.293.654-.654.654s-.654-.293-.654-.654v-17.654c0-.361.292-.654.654-.654z" class="C"/></g><g clip-path="url(#K)"><path d="M233.535 271.444c-1.323.027-2.601-.48-3.547-1.406-.822-.8-1.932-1.236-3.08-1.21-.965-.012-1.909.291-2.687.863-.099.078-.221.12-.347.121-.168-.001-.327-.075-.438-.202s-.168-.288-.166-.455v-7.366a.68.68 0 0 1 .199-.48 4.98 4.98 0 0 1 3.439-1.308 4.93 4.93 0 0 1 3.554 1.406 4.27 4.27 0 0 0 3.073 1.21c.788.007 1.564-.19 2.253-.573a.58.58 0 0 1 .284-.081.63.63 0 0 1 .602.654v7.437c.006.221-.1.43-.281.556-.849.555-1.844.846-2.858.834z" class="B"/><path d="M222.943 260.001c.361 0 .654.293.654.654v17.654c0 .361-.293.654-.654.654s-.654-.293-.654-.654v-17.654c0-.361.292-.654.654-.654z" class="C"/></g><g clip-path="url(#L)"><path d="M193.535 291.444c-1.323.027-2.601-.48-3.547-1.406-.822-.8-1.932-1.236-3.08-1.21-.965-.012-1.909.291-2.687.863-.099.078-.221.12-.347.121-.168-.001-.327-.075-.438-.202s-.168-.288-.166-.455v-7.366a.68.68 0 0 1 .199-.48 4.98 4.98 0 0 1 3.439-1.308 4.93 4.93 0 0 1 3.554 1.406 4.27 4.27 0 0 0 3.073 1.21c.788.007 1.564-.19 2.253-.573a.58.58 0 0 1 .284-.081.63.63 0 0 1 .602.654v7.437c.006.221-.1.43-.281.556-.849.555-1.844.846-2.858.834z" class="B"/><path d="M182.943 280.001c.361 0 .654.293.654.654v17.654c0 .361-.293.654-.654.654s-.654-.293-.654-.654v-17.654c0-.361.292-.654.654-.654z" class="C"/></g><g clip-path="url(#M)"><path d="M153.535 311.444c-1.323.027-2.601-.48-3.547-1.406-.822-.8-1.932-1.236-3.08-1.21-.965-.012-1.909.291-2.687.863-.099.078-.221.12-.347.121-.168-.001-.327-.075-.438-.202s-.168-.288-.166-.455v-7.366a.68.68 0 0 1 .199-.48 4.98 4.98 0 0 1 3.439-1.308 4.93 4.93 0 0 1 3.554 1.406 4.27 4.27 0 0 0 3.073 1.21c.788.007 1.564-.19 2.253-.573a.58.58 0 0 1 .284-.081.63.63 0 0 1 .602.654v7.437c.006.221-.1.43-.281.556-.849.555-1.844.846-2.858.834z" class="B"/><path d="M142.943 300.001c.361 0 .654.293.654.654v17.654c0 .361-.293.654-.654.654s-.654-.293-.654-.654v-17.654c0-.361.292-.654.654-.654z" class="C"/></g><g clip-path="url(#N)"><path d="M153.535 211.444c-1.323.027-2.601-.48-3.547-1.406-.822-.8-1.932-1.236-3.08-1.21-.965-.012-1.909.291-2.687.863-.099.078-.221.12-.347.121-.168-.001-.327-.075-.438-.202s-.168-.288-.166-.455v-7.366a.68.68 0 0 1 .199-.48 4.98 4.98 0 0 1 3.439-1.308 4.93 4.93 0 0 1 3.554 1.406 4.27 4.27 0 0 0 3.073 1.21c.788.007 1.564-.19 2.253-.573a.58.58 0 0 1 .284-.081.63.63 0 0 1 .602.654v7.437c.006.221-.1.43-.281.556-.849.555-1.844.846-2.858.834z" class="B"/><path d="M142.943 200.001c.361 0 .654.293.654.654v17.654c0 .361-.293.654-.654.654s-.654-.293-.654-.654v-17.654c0-.361.292-.654.654-.654z" class="C"/></g><g clip-path="url(#O)"><path d="M113.535 231.444c-1.323.027-2.601-.48-3.547-1.406-.822-.8-1.932-1.236-3.08-1.21-.965-.012-1.909.291-2.687.863-.099.078-.221.12-.347.121-.168-.001-.327-.075-.438-.202s-.168-.288-.166-.455v-7.366a.68.68 0 0 1 .199-.48 4.98 4.98 0 0 1 3.439-1.308 4.93 4.93 0 0 1 3.554 1.406 4.27 4.27 0 0 0 3.073 1.21c.788.007 1.564-.19 2.253-.573a.58.58 0 0 1 .284-.081.63.63 0 0 1 .602.654v7.437c.006.221-.1.43-.281.556-.849.555-1.844.846-2.858.834z" class="B"/><path d="M102.943 220.001c.361 0 .654.293.654.654v17.654c0 .361-.293.654-.654.654s-.654-.293-.654-.654v-17.654c0-.361.292-.654.654-.654z" class="C"/></g><g clip-path="url(#P)"><path d="M193.535 131.444c-1.323.027-2.601-.48-3.547-1.406-.822-.8-1.932-1.236-3.08-1.21-.965-.012-1.909.291-2.687.863-.099.078-.221.12-.347.121-.168-.001-.327-.075-.438-.202s-.168-.288-.166-.455v-7.366a.68.68 0 0 1 .199-.48 4.98 4.98 0 0 1 3.439-1.308 4.93 4.93 0 0 1 3.554 1.406 4.27 4.27 0 0 0 3.073 1.21c.788.007 1.564-.19 2.253-.573a.58.58 0 0 1 .284-.081.63.63 0 0 1 .602.654v7.437c.006.221-.1.43-.281.556-.849.555-1.844.846-2.858.834z" class="B"/><path d="M182.943 120.001c.361 0 .654.293.654.654v17.654c0 .361-.293.654-.654.654s-.654-.293-.654-.654v-17.654c0-.361.292-.654.654-.654z" class="C"/></g><g clip-path="url(#Q)"><path d="M33.535 191.444c-1.323.027-2.602-.48-3.547-1.406a4.28 4.28 0 0 0-3.08-1.21c-.966-.012-1.91.291-2.687.863-.099.078-.221.12-.347.121-.168-.001-.328-.075-.438-.202a.68.68 0 0 1-.167-.455v-7.366a.68.68 0 0 1 .2-.48 4.98 4.98 0 0 1 3.439-1.308 4.93 4.93 0 0 1 3.554 1.406 4.27 4.27 0 0 0 3.073 1.21 4.55 4.55 0 0 0 2.252-.573.58.58 0 0 1 .285-.081.63.63 0 0 1 .602.654v7.437c.006.221-.1.43-.281.556a5.11 5.11 0 0 1-2.857.834z" class="B"/><path d="M22.943 180.001c.361 0 .654.293.654.654v17.654c0 .361-.293.654-.654.654s-.654-.293-.654-.654v-17.654c0-.361.292-.654.654-.654z" class="C"/></g><g clip-path="url(#R)"><path d="M13.535 291.444c-1.323.027-2.602-.48-3.547-1.406a4.28 4.28 0 0 0-3.08-1.21c-.966-.012-1.91.291-2.687.863-.099.078-.221.12-.347.121-.168-.001-.328-.075-.438-.202a.68.68 0 0 1-.167-.455v-7.366a.68.68 0 0 1 .199-.48 4.98 4.98 0 0 1 3.439-1.308 4.93 4.93 0 0 1 3.554 1.406 4.27 4.27 0 0 0 3.073 1.21 4.55 4.55 0 0 0 2.253-.573.58.58 0 0 1 .284-.081.63.63 0 0 1 .602.654v7.437c.006.221-.1.43-.281.556a5.11 5.11 0 0 1-2.857.834z" class="B"/><path d="M2.943 280.001c.361 0 .654.293.654.654v17.654c0 .361-.293.654-.654.654s-.654-.293-.654-.654v-17.654c0-.361.293-.654.654-.654z" class="C"/></g><g clip-path="url(#S)"><path d="M113.535 71.444a4.93 4.93 0 0 1-3.547-1.406c-.822-.8-1.932-1.236-3.08-1.21-.965-.013-1.909.29-2.687.863a.57.57 0 0 1-.347.121c-.168-.001-.327-.075-.438-.203a.68.68 0 0 1-.166-.454v-7.366a.68.68 0 0 1 .199-.481c.938-.858 2.168-1.326 3.439-1.308a4.93 4.93 0 0 1 3.554 1.406 4.27 4.27 0 0 0 3.073 1.21 4.56 4.56 0 0 0 2.253-.572.57.57 0 0 1 .284-.082.63.63 0 0 1 .602.654v7.438c.006.221-.1.43-.281.556a5.11 5.11 0 0 1-2.858.834z" class="B"/><path d="M102.943 60.001c.361 0 .654.293.654.654v17.654c0 .361-.293.654-.654.654s-.654-.293-.654-.654V60.655c0-.361.292-.654.654-.654z" class="C"/></g><g fill="#00f"><path d="M70.703 15H69.25V5.367l-2.914 1.07V5.125l4.141-1.555h.227V15z"/><use xlink:href="#X"/><use xlink:href="#Y"/><path d="M90.703 175H89.25v-9.633l-2.914 1.071v-1.313l4.141-1.555h.227V175z"/><use xlink:href="#Z"/><path d="M70.703 175H69.25v-9.633l-2.914 1.071v-1.313l4.141-1.555h.227V175zm-20 0H49.25v-9.633l-2.914 1.071v-1.313l4.141-1.555h.227V175zm0 20H49.25v-9.633l-2.914 1.071v-1.313l4.141-1.555h.227V195zm0 20H49.25v-9.633l-2.914 1.071v-1.313l4.141-1.555h.227V215zm40 0H89.25v-9.633l-2.914 1.071v-1.313l4.141-1.555h.227V215zm0 20H89.25v-9.633l-2.914 1.071v-1.313l4.141-1.555h.227V235zm0 20H89.25v-9.633l-2.914 1.071v-1.313l4.141-1.555h.227V255zm-60 20H29.25v-9.633l-2.914 1.071v-1.313l4.141-1.555h.226V275zm-20 0H9.25v-9.633l-2.914 1.071v-1.313l4.141-1.555h.226V275z"/><use xlink:href="#a"/><path d="M130.703 315h-1.453v-9.633l-2.914 1.071v-1.313l4.141-1.555h.226V315z"/><use xlink:href="#a" x="20"/><use xlink:href="#b"/><use xlink:href="#c"/><use xlink:href="#d"/><use xlink:href="#e"/><use xlink:href="#f"/><use xlink:href="#f" x="-20"/><use xlink:href="#f" x="-40"/><use xlink:href="#Z" x="60"/><use xlink:href="#Z" x="80"/><use xlink:href="#Z" x="100"/><use xlink:href="#c" x="60"/><use xlink:href="#d" x="60"/><use xlink:href="#a" x="100"/><use xlink:href="#a" x="120"/><use xlink:href="#e" x="80"/><use xlink:href="#e" x="100"/><use xlink:href="#e" x="120"/><use xlink:href="#e" x="140"/><use xlink:href="#e" x="160"/><use xlink:href="#c" x="180"/><use xlink:href="#c" x="200"/><use xlink:href="#c" x="220"/><use xlink:href="#b" x="200"/><use xlink:href="#a" x="240"/><use xlink:href="#a" x="260"/><use xlink:href="#a" x="280"/><use xlink:href="#b" x="240"/><use xlink:href="#c" x="240"/><use xlink:href="#d" x="220"/><use xlink:href="#d" x="180"/><use xlink:href="#e" x="180"/><use xlink:href="#e" x="220"/><use xlink:href="#f" x="220"/><use xlink:href="#f" x="240"/><use xlink:href="#Z" x="320"/><use xlink:href="#Y" x="320"/><use xlink:href="#X" x="320"/><use xlink:href="#X" x="300"/><use xlink:href="#X" x="280"/><use xlink:href="#g"/><use xlink:href="#h"/><use xlink:href="#i"/><use xlink:href="#i" x="-20"/><use xlink:href="#X" x="200"/><use xlink:href="#Y" x="200"/><use xlink:href="#Z" x="200"/><use xlink:href="#Z" x="140"/><use xlink:href="#Y" x="140"/><use xlink:href="#X" x="140"/><use xlink:href="#g" x="-120"/><use xlink:href="#h" x="-120"/><use xlink:href="#j"/><use xlink:href="#i" x="-80"/><path d="M270.703 35h-1.453v-9.633l-2.914 1.07v-1.312l4.141-1.555h.226V35zm0-20h-1.453V5.367l-2.914 1.07V5.125l4.141-1.555h.226V15z"/><use xlink:href="#c" x="280"/><use xlink:href="#b" x="280"/><use xlink:href="#a" x="320"/><use xlink:href="#a" x="340"/><use xlink:href="#c" x="160"/><use xlink:href="#b" x="120"/><path d="M210.703 315h-1.453v-9.633l-2.914 1.071v-1.313l4.141-1.555h.226V315z"/><use xlink:href="#b" x="20"/><path d="M30.703 215H29.25v-9.633l-2.914 1.071v-1.313l4.141-1.555h.226V215zm-20-40H9.25v-9.633l-2.914 1.071v-1.313l4.141-1.555h.226V175zm0 40H9.25v-9.633l-2.914 1.071v-1.313l4.141-1.555h.226V215zm20-40H29.25v-9.633l-2.914 1.071v-1.313l4.141-1.555h.226V175zm0-20H29.25v-9.633l-2.914 1.071v-1.313l4.141-1.555h.226V155zm0-20H29.25v-9.633l-2.914 1.071v-1.313l4.141-1.555h.226V135zm60 0H89.25v-9.633l-2.914 1.071v-1.313l4.141-1.555h.227V135zm-60-20H29.25v-9.633l-2.914 1.071v-1.313l4.141-1.555h.226V115zm20 0H49.25v-9.633l-2.914 1.071v-1.313l4.141-1.555h.227V115zm20 0H69.25v-9.633l-2.914 1.071v-1.313l4.141-1.555h.227V115z"/><use xlink:href="#g" x="-200"/><path d="M170.703 15h-1.453V5.367l-2.914 1.07V5.125l4.141-1.555h.226V15z"/><use xlink:href="#h" x="-180"/><use xlink:href="#j" x="-59"/><use xlink:href="#j" x="-80"/><use xlink:href="#j" x="-100"/><use xlink:href="#h" x="-240"/><use xlink:href="#h" x="-260"/><path d="M90.703 95H89.25v-9.633l-2.914 1.07v-1.312l4.141-1.555h.227V95zm-20-60H69.25v-9.633l-2.914 1.07v-1.312l4.141-1.555h.227V35z"/></g><g fill="green"><path d="M93.406 35h-7.453v-1.039l3.938-4.375c.583-.661.984-1.198 1.203-1.609a2.69 2.69 0 0 0 .336-1.289c0-.594-.18-1.081-.539-1.461s-.839-.57-1.437-.57c-.719 0-1.279.206-1.68.617-.396.406-.594.974-.594 1.703h-1.445c0-1.047.336-1.893 1.008-2.539.677-.646 1.581-.969 2.711-.969 1.057 0 1.893.279 2.508.836s.922 1.289.922 2.211c0 1.12-.713 2.453-2.141 4l-3.047 3.305h5.711V35zm0 20h-7.453v-1.039l3.938-4.375c.583-.661.984-1.198 1.203-1.609a2.69 2.69 0 0 0 .336-1.289c0-.594-.18-1.081-.539-1.461s-.839-.57-1.437-.57c-.719 0-1.279.206-1.68.617-.396.406-.594.974-.594 1.703h-1.445c0-1.047.336-1.893 1.008-2.539.677-.646 1.581-.969 2.711-.969 1.057 0 1.893.279 2.508.836s.922 1.289.922 2.211c0 1.12-.713 2.453-2.141 4l-3.047 3.305h5.711V55z"/><path d="M93.406 75h-7.453v-1.039l3.938-4.375c.583-.661.984-1.198 1.203-1.609a2.69 2.69 0 0 0 .336-1.289c0-.594-.18-1.081-.539-1.461s-.839-.57-1.437-.57c-.719 0-1.279.206-1.68.617-.396.406-.594.974-.594 1.703h-1.445c0-1.047.336-1.893 1.008-2.539.677-.646 1.581-.969 2.711-.969 1.057 0 1.893.279 2.508.836s.922 1.289.922 2.211c0 1.12-.713 2.453-2.141 4l-3.047 3.305h5.711V75zm80-20h-7.453v-1.039l3.938-4.375c.583-.661.984-1.198 1.203-1.609a2.69 2.69 0 0 0 .336-1.289c0-.594-.18-1.081-.539-1.461s-.839-.57-1.438-.57c-.719 0-1.279.206-1.68.617-.395.406-.593.974-.593 1.703h-1.446c0-1.047.336-1.893 1.008-2.539s1.581-.969 2.711-.969c1.057 0 1.893.279 2.508.836s.922 1.289.922 2.211c0 1.12-.714 2.453-2.141 4l-3.047 3.305h5.711V55zm0-20h-7.453v-1.039l3.938-4.375c.583-.661.984-1.198 1.203-1.609a2.69 2.69 0 0 0 .336-1.289c0-.594-.18-1.081-.539-1.461s-.839-.57-1.438-.57c-.719 0-1.279.206-1.68.617-.395.406-.593.974-.593 1.703h-1.446c0-1.047.336-1.893 1.008-2.539s1.581-.969 2.711-.969c1.057 0 1.893.279 2.508.836s.922 1.289.922 2.211c0 1.12-.714 2.453-2.141 4l-3.047 3.305h5.711V35z"/><use xlink:href="#k"/><use xlink:href="#k" x="20"/><use xlink:href="#l"/><use xlink:href="#l" x="-40"/><use xlink:href="#m"/><use xlink:href="#m" x="40"/><use xlink:href="#n"/><use xlink:href="#n" x="-40"/><path d="M73.406 135h-7.453v-1.039l3.938-4.375c.583-.662.984-1.198 1.203-1.609.224-.417.336-.847.336-1.289 0-.594-.18-1.081-.539-1.461s-.839-.571-1.437-.571c-.719 0-1.279.206-1.68.617-.396.407-.594.974-.594 1.704h-1.445c0-1.047.336-1.894 1.008-2.539.677-.646 1.581-.969 2.711-.969 1.057 0 1.893.278 2.508.836.615.552.922 1.289.922 2.211 0 1.119-.713 2.453-2.141 4l-3.047 3.304h5.711V135zm40 80h-7.453v-1.039l3.938-4.375c.583-.662.984-1.198 1.203-1.609.224-.417.336-.847.336-1.289 0-.594-.18-1.081-.539-1.461s-.839-.571-1.438-.571c-.719 0-1.279.206-1.68.617-.395.407-.593.974-.593 1.704h-1.446c0-1.047.336-1.894 1.008-2.539s1.581-.969 2.711-.969c1.057 0 1.893.278 2.508.836.615.552.922 1.289.922 2.211 0 1.119-.714 2.453-2.141 4l-3.047 3.304h5.711V215z"/><use xlink:href="#o"/><use xlink:href="#o" x="20"/><path d="M153.406 235h-7.453v-1.039l3.938-4.375c.583-.662.984-1.198 1.203-1.609.224-.417.336-.847.336-1.289 0-.594-.18-1.081-.539-1.461s-.839-.571-1.438-.571c-.719 0-1.279.206-1.68.617-.395.407-.593.974-.593 1.704h-1.446c0-1.047.336-1.894 1.008-2.539s1.581-.969 2.711-.969c1.057 0 1.893.278 2.508.836.615.552.922 1.289.922 2.211 0 1.119-.714 2.453-2.141 4l-3.047 3.304h5.711V235zm-120 60h-7.453v-1.039l3.938-4.375c.583-.662.984-1.198 1.203-1.609.224-.417.336-.847.336-1.289 0-.594-.18-1.081-.539-1.461s-.838-.571-1.437-.571c-.719 0-1.279.206-1.68.617s-.594.974-.594 1.704h-1.445c0-1.047.336-1.894 1.008-2.539s1.581-.969 2.711-.969c1.057 0 1.893.278 2.508.836.615.552.922 1.289.922 2.211 0 1.119-.714 2.453-2.141 4l-3.047 3.304h5.711V295zm0 20h-7.453v-1.039l3.938-4.375c.583-.662.984-1.198 1.203-1.609.224-.417.336-.847.336-1.289 0-.594-.18-1.081-.539-1.461s-.838-.571-1.437-.571c-.719 0-1.279.206-1.68.617s-.594.974-.594 1.704h-1.445c0-1.047.336-1.894 1.008-2.539s1.581-.969 2.711-.969c1.057 0 1.893.278 2.508.836.615.552.922 1.289.922 2.211 0 1.119-.714 2.453-2.141 4l-3.047 3.304h5.711V315z"/><use xlink:href="#p"/><use xlink:href="#p" x="40"/><path d="M213.406 275h-7.453v-1.039l3.938-4.375c.583-.662.984-1.198 1.203-1.609.224-.417.336-.847.336-1.289 0-.594-.18-1.081-.539-1.461s-.839-.571-1.438-.571c-.719 0-1.279.206-1.68.617-.395.407-.593.974-.593 1.704h-1.446c0-1.047.336-1.894 1.008-2.539s1.581-.969 2.711-.969c1.057 0 1.893.278 2.508.836.615.552.922 1.289.922 2.211 0 1.119-.714 2.453-2.141 4l-3.047 3.304h5.711V275zm20-20h-7.453v-1.039l3.938-4.375c.583-.662.984-1.198 1.203-1.609.224-.417.336-.847.336-1.289 0-.594-.18-1.081-.539-1.461s-.839-.571-1.438-.571c-.719 0-1.279.206-1.68.617-.395.407-.593.974-.593 1.704h-1.446c0-1.047.336-1.894 1.008-2.539s1.581-.969 2.711-.969c1.057 0 1.893.278 2.508.836.615.552.922 1.289.922 2.211 0 1.119-.714 2.453-2.141 4l-3.047 3.304h5.711V255zm40 20h-7.453v-1.039l3.938-4.375c.583-.662.984-1.198 1.203-1.609.224-.417.336-.847.336-1.289 0-.594-.18-1.081-.539-1.461s-.839-.571-1.438-.571c-.719 0-1.279.206-1.68.617-.395.407-.593.974-.593 1.704h-1.446c0-1.047.336-1.894 1.008-2.539s1.581-.969 2.711-.969c1.057 0 1.893.278 2.508.836.615.552.922 1.289.922 2.211 0 1.119-.714 2.453-2.141 4l-3.047 3.304h5.711V275z"/><use xlink:href="#o" x="180"/><use xlink:href="#o" x="300"/><use xlink:href="#o" x="340"/><path d="M433.406 195h-7.453v-1.039l3.938-4.375c.583-.662.984-1.198 1.203-1.609.224-.417.336-.847.336-1.289 0-.594-.18-1.081-.539-1.461s-.839-.571-1.438-.571c-.719 0-1.279.206-1.68.617-.395.407-.593.974-.593 1.704h-1.446c0-1.047.336-1.894 1.008-2.539s1.581-.969 2.711-.969c1.057 0 1.893.278 2.508.836.615.552.922 1.289.922 2.211 0 1.119-.714 2.453-2.141 4l-3.047 3.304h5.711V195zm-60-120h-7.453v-1.039l3.938-4.375c.583-.661.984-1.198 1.203-1.609a2.69 2.69 0 0 0 .336-1.289c0-.594-.18-1.081-.539-1.461s-.839-.57-1.438-.57c-.719 0-1.279.206-1.68.617-.395.406-.593.974-.593 1.703h-1.446c0-1.047.336-1.893 1.008-2.539s1.581-.969 2.711-.969c1.057 0 1.893.279 2.508.836s.922 1.289.922 2.211c0 1.12-.714 2.453-2.141 4l-3.047 3.305h5.711V75z"/><use xlink:href="#q"/><use xlink:href="#q" x="-60"/><use xlink:href="#q" x="-80"/><use xlink:href="#r"/><use xlink:href="#s"/><use xlink:href="#r" x="-20"/><use xlink:href="#s" x="-20"/></g><g fill="red"><path d="M128.055 68.609h1.086c.682-.01 1.218-.19 1.609-.539s.586-.82.586-1.414c0-1.333-.664-2-1.992-2-.625 0-1.125.18-1.5.539-.37.354-.555.825-.555 1.414h-1.445c0-.901.328-1.648.984-2.242.662-.599 1.5-.898 2.516-.898 1.073 0 1.914.284 2.523.852s.914 1.357.914 2.367c0 .495-.161.974-.484 1.438a2.88 2.88 0 0 1-1.305 1.039c.625.198 1.107.526 1.446.984s.515 1.018.515 1.68c0 1.021-.333 1.831-1 2.43s-1.534.898-2.601.898-1.938-.289-2.61-.867c-.666-.578-1-1.341-1-2.289h1.453c0 .599.196 1.078.586 1.438s.914.539 1.571.539c.697 0 1.231-.182 1.601-.547s.555-.888.555-1.57c0-.661-.203-1.169-.61-1.523s-.992-.536-1.757-.547h-1.086v-1.18z"/><use xlink:href="#t"/><use xlink:href="#t" x="40" y="120"/><path d="M128.055 208.609h1.086c.682-.01 1.218-.19 1.609-.539s.586-.82.586-1.414c0-1.333-.664-2-1.992-2-.625 0-1.125.18-1.5.539-.37.354-.555.826-.555 1.414h-1.445c0-.901.328-1.648.984-2.242.662-.599 1.5-.898 2.516-.898 1.073 0 1.914.284 2.523.851s.914 1.357.914 2.368c0 .494-.161.973-.484 1.437-.318.464-.753.81-1.305 1.039.625.198 1.107.526 1.446.984s.515 1.019.515 1.68c0 1.021-.333 1.831-1 2.43s-1.534.898-2.601.898-1.938-.289-2.61-.867c-.666-.578-1-1.341-1-2.289h1.453c0 .599.196 1.078.586 1.438s.914.539 1.571.539c.697 0 1.231-.183 1.601-.547s.555-.888.555-1.571c0-.661-.203-1.169-.61-1.523s-.992-.537-1.757-.547h-1.086v-1.18z"/><use xlink:href="#t" x="40" y="160"/><path d="M388.055 108.609h1.086c.682-.01 1.218-.19 1.609-.539s.586-.82.586-1.414c0-1.333-.664-2-1.992-2-.625 0-1.125.18-1.5.539s-.555.826-.555 1.414h-1.445c0-.901.328-1.648.984-2.242.662-.599 1.5-.898 2.516-.898 1.073 0 1.914.284 2.523.851s.914 1.357.914 2.368c0 .494-.161.973-.484 1.437s-.753.81-1.305 1.039c.625.198 1.107.526 1.446.984s.515 1.019.515 1.68c0 1.021-.333 1.831-1 2.43s-1.534.898-2.601.898-1.938-.289-2.61-.867c-.666-.578-1-1.341-1-2.289h1.453c0 .599.196 1.078.586 1.438s.914.539 1.571.539c.697 0 1.231-.183 1.601-.547s.555-.888.555-1.571c0-.661-.203-1.169-.61-1.523s-.992-.537-1.757-.547h-1.086v-1.18z"/></g><defs><clipPath id="A"><path transform="translate(80)" d="M0 0h19v19H0z" class="D"/></clipPath><clipPath id="B"><path transform="translate(381 80)" d="M0 0h19v19H0z" class="D"/></clipPath><clipPath id="C"><path transform="translate(280 20)" d="M0 0h19v19H0z" class="D"/></clipPath><clipPath id="D"><path transform="translate(280 140)" d="M0 0h19v19H0z" class="D"/></clipPath><clipPath id="E"><path transform="translate(260 140)" d="M0 0h19v19H0z" class="D"/></clipPath><clipPath id="F"><path transform="translate(220 80)" d="M0 0h19v19H0z" class="D"/></clipPath><clipPath id="G"><path transform="translate(400 200)" d="M0 0h19v19H0z" class="D"/></clipPath><clipPath id="H"><path transform="translate(380 260)" d="M0 0h19v19H0z" class="D"/></clipPath><clipPath id="I"><path transform="translate(320 220)" d="M0 0h19v19H0z" class="D"/></clipPath><clipPath id="J"><path transform="translate(260 220)" d="M0 0h19v19H0z" class="D"/></clipPath><clipPath id="K"><path transform="translate(220 260)" d="M0 0h19v19H0z" class="D"/></clipPath><clipPath id="L"><path transform="translate(180 280)" d="M0 0h19v19H0z" class="D"/></clipPath><clipPath id="M"><path transform="translate(140 300)" d="M0 0h19v19H0z" class="D"/></clipPath><clipPath id="N"><path transform="translate(140 200)" d="M0 0h19v19H0z" class="D"/></clipPath><clipPath id="O"><path transform="translate(100 220)" d="M0 0h19v19H0z" class="D"/></clipPath><clipPath id="P"><path transform="translate(180 120)" d="M0 0h19v19H0z" class="D"/></clipPath><clipPath id="Q"><path transform="translate(20 180)" d="M0 0h19v19H0z" class="D"/></clipPath><clipPath id="R"><path transform="translate(0 280)" d="M0 0h19v19H0z" class="D"/></clipPath><clipPath id="S"><path transform="translate(100 60)" d="M0 0h19v19H0z" class="D"/></clipPath><path id="T" d="M394.535 91.444a4.93 4.93 0 0 1-3.547-1.406c-.822-.8-1.932-1.236-3.08-1.21-.965-.013-1.909.29-2.687.863a.57.57 0 0 1-.347.121c-.168-.001-.327-.075-.438-.203a.68.68 0 0 1-.166-.454v-7.366a.68.68 0 0 1 .199-.481c.938-.859 2.168-1.326 3.439-1.308a4.93 4.93 0 0 1 3.554 1.406 4.27 4.27 0 0 0 3.073 1.21 4.56 4.56 0 0 0 2.253-.572.57.57 0 0 1 .284-.082.63.63 0 0 1 .602.654v7.438c.006.221-.1.43-.281.556a5.11 5.11 0 0 1-2.858.834z"/><path id="U" d="M383.943 80.001c.361 0 .654.293.654.654v17.654c0 .361-.293.654-.654.654s-.654-.293-.654-.654V80.655c0-.361.292-.654.654-.654z"/><path id="V" d="M293.535 151.444c-1.323.027-2.601-.48-3.547-1.406-.822-.8-1.932-1.236-3.08-1.21-.965-.012-1.909.291-2.687.863-.099.078-.221.12-.347.121-.168-.001-.327-.075-.438-.202s-.168-.288-.166-.455v-7.366a.68.68 0 0 1 .199-.48 4.98 4.98 0 0 1 3.439-1.308 4.93 4.93 0 0 1 3.554 1.406 4.27 4.27 0 0 0 3.073 1.21c.788.007 1.564-.19 2.253-.573a.58.58 0 0 1 .284-.081.63.63 0 0 1 .602.654v7.437c.006.221-.1.43-.281.556-.849.555-1.844.846-2.858.834z"/><path id="W" d="M282.943 140.001c.361 0 .654.293.654.654v17.654c0 .361-.293.654-.654.654s-.654-.293-.654-.654v-17.654c0-.361.292-.654.654-.654z"/><path id="X" d="M110.703 135h-1.453v-9.633l-2.914 1.071v-1.313l4.141-1.555h.226V135z"/><path id="Y" d="M110.703 155h-1.453v-9.633l-2.914 1.071v-1.313l4.141-1.555h.226V155z"/><path id="Z" d="M110.703 175h-1.453v-9.633l-2.914 1.071v-1.313l4.141-1.555h.226V175z"/><path id="a" d="M130.703 295h-1.453v-9.633l-2.914 1.071v-1.313l4.141-1.555h.226V295z"/><path id="b" d="M170.703 275h-1.453v-9.633l-2.914 1.071v-1.313l4.141-1.555h.226V275z"/><path id="c" d="M150.703 255h-1.453v-9.633l-2.914 1.071v-1.313l4.141-1.555h.226V255z"/><path id="d" d="M170.703 235h-1.453v-9.633l-2.914 1.071v-1.313l4.141-1.555h.226V235z"/><path id="e" d="M170.703 215h-1.453v-9.633l-2.914 1.071v-1.313l4.141-1.555h.226V215z"/><path id="f" d="M170.703 195h-1.453v-9.633l-2.914 1.071v-1.313l4.141-1.555h.226V195z"/><path id="g" d="M370.703 115h-1.453v-9.633l-2.914 1.071v-1.313l4.141-1.555h.226V115z"/><path id="h" d="M370.703 95h-1.453v-9.633l-2.914 1.07v-1.312l4.141-1.555h.226V95z"/><path id="i" d="M350.703 55h-1.453v-9.633l-2.914 1.07v-1.312l4.141-1.555h.226V55z"/><path id="j" d="M250.703 75h-1.453v-9.633l-2.914 1.07v-1.312l4.141-1.555h.226V75z"/><path id="k" d="M213.406 75h-7.453v-1.039l3.938-4.375c.583-.661.984-1.198 1.203-1.609a2.69 2.69 0 0 0 .336-1.289c0-.594-.18-1.081-.539-1.461s-.839-.57-1.438-.57c-.719 0-1.279.206-1.68.617-.395.406-.593.974-.593 1.703h-1.446c0-1.047.336-1.893 1.008-2.539.677-.646 1.581-.969 2.711-.969 1.057 0 1.893.279 2.508.836.615.552.922 1.289.922 2.211 0 1.12-.714 2.453-2.141 4l-3.047 3.305h5.711V75z"/><path id="l" d="M233.406 115h-7.453v-1.039l3.938-4.375c.583-.662.984-1.198 1.203-1.609.224-.417.336-.847.336-1.289 0-.594-.18-1.081-.539-1.461s-.839-.571-1.438-.571c-.719 0-1.279.206-1.68.617-.395.407-.593.974-.593 1.704h-1.446c0-1.047.336-1.894 1.008-2.539.677-.646 1.581-.969 2.711-.969 1.057 0 1.893.278 2.508.836.615.552.922 1.289.922 2.211 0 1.119-.714 2.453-2.141 4l-3.047 3.304h5.711V115z"/><path id="m" d="M173.406 135h-7.453v-1.039l3.938-4.375c.583-.662.984-1.198 1.203-1.609.224-.417.336-.847.336-1.289 0-.594-.18-1.081-.539-1.461s-.839-.571-1.438-.571c-.719 0-1.279.206-1.68.617-.395.407-.593.974-.593 1.704h-1.446c0-1.047.336-1.894 1.008-2.539.677-.646 1.581-.969 2.711-.969 1.057 0 1.893.278 2.508.836.615.552.922 1.289.922 2.211 0 1.119-.714 2.453-2.141 4l-3.047 3.304h5.711V135z"/><path id="n" d="M213.406 155h-7.453v-1.039l3.938-4.375c.583-.662.984-1.198 1.203-1.609.224-.417.336-.847.336-1.289 0-.594-.18-1.081-.539-1.461s-.839-.571-1.438-.571c-.719 0-1.279.206-1.68.617-.395.407-.593.974-.593 1.704h-1.446c0-1.047.336-1.894 1.008-2.539.677-.646 1.581-.969 2.711-.969 1.057 0 1.893.278 2.508.836.615.552.922 1.289.922 2.211 0 1.119-.714 2.453-2.141 4l-3.047 3.304h5.711V155z"/><path id="o" d="M113.406 255h-7.453v-1.039l3.938-4.375c.583-.662.984-1.198 1.203-1.609.224-.417.336-.847.336-1.289 0-.594-.18-1.081-.539-1.461s-.839-.571-1.438-.571c-.719 0-1.279.206-1.68.617-.395.407-.593.974-.593 1.704h-1.446c0-1.047.336-1.894 1.008-2.539s1.581-.969 2.711-.969c1.057 0 1.893.278 2.508.836.615.552.922 1.289.922 2.211 0 1.119-.714 2.453-2.141 4l-3.047 3.304h5.711V255z"/><path id="p" d="M173.406 295h-7.453v-1.039l3.938-4.375c.583-.662.984-1.198 1.203-1.609.224-.417.336-.847.336-1.289 0-.594-.18-1.081-.539-1.461s-.839-.571-1.438-.571c-.719 0-1.279.206-1.68.617-.395.407-.593.974-.593 1.704h-1.446c0-1.047.336-1.894 1.008-2.539.677-.646 1.581-.969 2.711-.969 1.057 0 1.893.278 2.508.836.615.552.922 1.289.922 2.211 0 1.119-.714 2.453-2.141 4l-3.047 3.304h5.711V295z"/><path id="q" d="M373.406 55h-7.453v-1.039l3.938-4.375c.583-.661.984-1.198 1.203-1.609a2.69 2.69 0 0 0 .336-1.289c0-.594-.18-1.081-.539-1.461s-.839-.57-1.438-.57c-.719 0-1.279.206-1.68.617-.395.406-.593.974-.593 1.703h-1.446c0-1.047.336-1.893 1.008-2.539s1.581-.969 2.711-.969c1.057 0 1.893.279 2.508.836.615.552.922 1.289.922 2.211 0 1.12-.714 2.453-2.141 4l-3.047 3.305h5.711V55z"/><path id="r" d="M293.406 135h-7.453v-1.039l3.938-4.375c.583-.662.984-1.198 1.203-1.609.224-.417.336-.847.336-1.289 0-.594-.18-1.081-.539-1.461s-.839-.571-1.438-.571c-.719 0-1.279.206-1.68.617-.395.407-.593.974-.593 1.704h-1.446c0-1.047.336-1.894 1.008-2.539s1.581-.969 2.711-.969c1.057 0 1.893.278 2.508.836.615.552.922 1.289.922 2.211 0 1.119-.714 2.453-2.141 4l-3.047 3.304h5.711V135z"/><path id="s" d="M293.406 175h-7.453v-1.039l3.938-4.375c.583-.662.984-1.198 1.203-1.609.224-.417.336-.847.336-1.289 0-.594-.18-1.081-.539-1.461s-.839-.571-1.438-.571c-.719 0-1.279.206-1.68.617-.395.407-.593.974-.593 1.704h-1.446c0-1.047.336-1.894 1.008-2.539s1.581-.969 2.711-.969c1.057 0 1.893.278 2.508.836.615.552.922 1.289.922 2.211 0 1.119-.714 2.453-2.141 4l-3.047 3.304h5.711V175z"/><path id="t" d="M208.055 108.609h1.086c.682-.01 1.218-.19 1.609-.539s.586-.82.586-1.414c0-1.333-.664-2-1.992-2-.625 0-1.125.18-1.5.539s-.555.826-.555 1.414h-1.445c0-.901.328-1.648.984-2.242.662-.599 1.5-.898 2.516-.898 1.073 0 1.914.284 2.523.851s.914 1.357.914 2.368c0 .494-.161.973-.484 1.437-.318.464-.753.81-1.305 1.039.625.198 1.107.526 1.446.984s.515 1.019.515 1.68c0 1.021-.333 1.831-1 2.43s-1.534.898-2.601.898-1.938-.289-2.61-.867c-.666-.578-1-1.341-1-2.289h1.453c0 .599.196 1.078.586 1.438s.914.539 1.571.539c.697 0 1.231-.183 1.601-.547s.555-.888.555-1.571c0-.661-.203-1.169-.61-1.523s-.992-.537-1.757-.547h-1.086v-1.18z"/></defs></svg>