<svg xmlns="http://www.w3.org/2000/svg" width="480" height="320" fill="none" xmlns:v="https://vecta.io/nano"><path fill="#eee" d="M0 0h480v320H0z"/><g fill="#000"><path d="M130.219 118.719h6.312v4.719h-6.312V134h-5.813v-10.562h-20.718v-3.407L124.062 88.5h6.157v30.219zm-19.969 0h14.156V96.406l-.687 1.25-13.469 21.063zm243.969-10.281h4.343c2.73-.042 4.876-.761 6.438-2.157s2.344-3.281 2.344-5.656c0-5.333-2.656-8-7.969-8-2.5 0-4.5.719-6 2.156-1.479 1.417-2.219 3.302-2.219 5.657h-5.781c0-3.605 1.313-6.594 3.937-8.969 2.646-2.396 6-3.594 10.063-3.594 4.292 0 7.656 1.135 10.094 3.406s3.656 5.427 3.656 9.469c0 1.979-.646 3.896-1.937 5.75-1.271 1.854-3.011 3.24-5.219 4.156 2.5.792 4.427 2.104 5.781 3.938 1.375 1.833 2.062 4.073 2.062 6.718 0 4.084-1.333 7.323-4 9.719s-6.135 3.594-10.406 3.594-7.75-1.156-10.437-3.469c-2.667-2.312-4-5.364-4-9.156h5.812c0 2.396.781 4.312 2.344 5.75s3.656 2.156 6.281 2.156c2.792 0 4.927-.729 6.406-2.187s2.219-3.552 2.219-6.281c0-2.646-.812-4.678-2.437-6.094s-3.969-2.146-7.032-2.188h-4.343v-4.718z"/><circle cx="167" cy="214" r="10"/></g><g stroke="#000"><path stroke-width="2" stroke-dasharray="50 50" d="M241 0v320"/><path d="M467 60v75M15 208v75" stroke-width="10"/></g></svg>