<svg xmlns="http://www.w3.org/2000/svg" width="480" height="320" fill="none" xmlns:v="https://vecta.io/nano"><path fill="#000" d="M0 0h480v320H0z"/><path d="M203.668 190.752v-6.455h-3.174v6.481h-3.31v3.204H189.5v-3.23h7.684v-3.225h-16.343v3.225l6.576.022V194h-6.601v-3.204h-3.31v-6.521h-3.174v6.455H171v-9.772h3.266v-3.138h3.24v-3.317h3.332v-3.252h3.265v3.259l9.794.026v-3.285h3.265v3.296h3.332v3.229h3.218v3.226H207v9.75h-3.332zm-19.565-13.002h-3.265v3.252h3.265v-3.252zm13.059 0h-3.265v3.252h3.265v-3.252zM177.506 168h3.332v3.251h-3.332V168zm22.988 0v3.251h-3.332V168h3.332zm3.174-57.248v-6.455h-3.174v6.481h-3.31v3.204H189.5v-3.23h7.684v-3.225h-16.343v3.225l6.576.022V114h-6.601v-3.204h-3.31v-6.521h-3.174v6.455H171v-9.772h3.266V97.82h3.24v-3.317h3.332v-3.251h3.265v3.259l9.794.026v-3.284h3.265v3.295h3.332v3.23h3.218v3.226H207v9.75h-3.332zm-19.565-13.001h-3.265v3.251h3.265v-3.251zm13.059 0h-3.265v3.251h3.265v-3.251zM177.506 88h3.332v3.251h-3.332V88zm22.988 0v3.251h-3.332V88h3.332zm-44.826 22.752v-6.455h-3.174v6.481h-3.31v3.204H141.5v-3.23h7.684v-3.225h-16.343v3.225l6.576.022V114h-6.601v-3.204h-3.31v-6.521h-3.174v6.455H123v-9.772h3.266V97.82h3.24v-3.317h3.332v-3.251h3.265v3.259l9.794.026v-3.284h3.265v3.295h3.332v3.23h3.218v3.226H159v9.75h-3.332zm-19.565-13.001h-3.265v3.251h3.265v-3.251zm13.059 0h-3.265v3.251h3.265v-3.251zM129.506 88h3.332v3.251h-3.332V88zm22.988 0v3.251h-3.332V88h3.332zm3.174 62.752v-6.455h-3.174v6.481h-3.31v3.204H141.5v-3.23h7.684v-3.225h-16.343v3.225l6.576.022V154h-6.601v-3.204h-3.31v-6.521h-3.174v6.455H123v-9.772h3.266v-3.138h3.24v-3.317h3.332v-3.252h3.265v3.259l9.794.026v-3.285h3.265v3.296h3.332v3.229h3.218v3.226H159v9.75h-3.332zm-19.565-13.002h-3.265v3.252h3.265v-3.252zm13.059 0h-3.265v3.252h3.265v-3.252zM129.506 128h3.332v3.251h-3.332V128zm22.988 0v3.251h-3.332V128h3.332zm102.174-17.248v-6.455h-3.174v6.481h-3.31v3.204H240.5v-3.23h7.684v-3.225h-16.343v3.225l6.576.022V114h-6.601v-3.204h-3.31v-6.521h-3.174v6.455H222v-9.772h3.266V97.82h3.24v-3.317h3.332v-3.251h3.265v3.259l9.794.026v-3.284h3.265v3.295h3.332v3.23h3.218v3.226H258v9.75h-3.332zm-19.565-13.001h-3.265v3.251h3.265v-3.251zm13.059 0h-3.265v3.251h3.265v-3.251zM228.506 88h3.332v3.251h-3.332V88zm22.988 0v3.251h-3.332V88h3.332zm54.174 22.752v-6.455h-3.174v6.481h-3.31v3.204H291.5v-3.23h7.684v-3.225h-16.343v3.225l6.576.022V114h-6.601v-3.204h-3.31v-6.521h-3.174v6.455H273v-9.772h3.266V97.82h3.24v-3.317h3.332v-3.251h3.265v3.259l9.794.026v-3.284h3.265v3.295h3.332v3.23h3.218v3.226H309v9.75h-3.332zm-19.565-13.001h-3.265v3.251h3.265v-3.251zm13.059 0h-3.265v3.251h3.265v-3.251zM279.506 88h3.332v3.251h-3.332V88zm22.988 0v3.251h-3.332V88h3.332zm3.174 62.752v-6.455h-3.174v6.481h-3.31v3.204H291.5v-3.23h7.684v-3.225h-16.343v3.225l6.576.022V154h-6.601v-3.204h-3.31v-6.521h-3.174v6.455H273v-9.772h3.266v-3.138h3.24v-3.317h3.332v-3.252h3.265v3.259l9.794.026v-3.285h3.265v3.296h3.332v3.229h3.218v3.226H309v9.75h-3.332zm-19.565-13.002h-3.265v3.252h3.265v-3.252zm13.059 0h-3.265v3.252h3.265v-3.252zM279.506 128h3.332v3.251h-3.332V128zm22.988 0v3.251h-3.332V128h3.332zm-47.826 22.752v-6.455h-3.174v6.481h-3.31v3.204H240.5v-3.23h7.684v-3.225h-16.343v3.225l6.576.022V154h-6.601v-3.204h-3.31v-6.521h-3.174v6.455H222v-9.772h3.266v-3.138h3.24v-3.317h3.332v-3.252h3.265v3.259l9.794.026v-3.285h3.265v3.296h3.332v3.229h3.218v3.226H258v9.75h-3.332zm-19.565-13.002h-3.265v3.252h3.265v-3.252zm13.059 0h-3.265v3.252h3.265v-3.252zM228.506 128h3.332v3.251h-3.332V128zm22.988 0v3.251h-3.332V128h3.332zm105.174 22.752v-6.455h-3.174v6.481h-3.31v3.204H342.5v-3.23h7.684v-3.225h-16.343v3.225l6.576.022V154h-6.601v-3.204h-3.31v-6.521h-3.174v6.455H324v-9.772h3.266v-3.138h3.24v-3.317h3.332v-3.252h3.265v3.259l9.794.026v-3.285h3.265v3.296h3.332v3.229h3.218v3.226H360v9.75h-3.332zm-19.565-13.002h-3.265v3.252h3.265v-3.252zm13.059 0h-3.265v3.252h3.265v-3.252zM330.506 128h3.332v3.251h-3.332V128zm22.988 0v3.251h-3.332V128h3.332zm3.174 62.752v-6.455h-3.174v6.481h-3.31v3.204H342.5v-3.23h7.684v-3.225h-16.343v3.225l6.576.022V194h-6.601v-3.204h-3.31v-6.521h-3.174v6.455H324v-9.772h3.266v-3.138h3.24v-3.317h3.332v-3.252h3.265v3.259l9.794.026v-3.285h3.265v3.296h3.332v3.229h3.218v3.226H360v9.75h-3.332zm-19.565-13.002h-3.265v3.252h3.265v-3.252zm13.059 0h-3.265v3.252h3.265v-3.252zM330.506 168h3.332v3.251h-3.332V168zm22.988 0v3.251h-3.332V168h3.332z" fill="#fff"/><g stroke="#fff"><path d="M240.5 181v10m53 44v10" stroke-width="5"/><path stroke-width="10" d="M230 312h20"/></g></svg>