<svg width="508" height="508" viewBox="0 0 508 508" fill="none" xmlns="http://www.w3.org/2000/svg">
<g filter="url(#filter0_f)">
<path d="M108.85 434.178C116.705 447.262 241.782 516.023 255.368 502.165C260.746 496.68 284.605 484.663 292.987 484.663C317.323 484.663 358.838 451.941 376.145 460.767C379.35 462.401 406.714 439.353 404.181 441.937C399.233 446.983 397.774 404.805 436.534 385.042C472.609 366.645 533.912 216.451 487.02 168.63C482.158 163.671 496.765 154 493.29 150.456C464.409 120.997 435.769 82.6935 402.54 48.8073C381.886 27.7413 355.672 30.6275 306.182 5.38987C292.761 -1.45393 244.213 19.2577 243.153 18.1792C240.707 15.6846 175.922 12.7038 175.837 12.7939C149.331 39.8224 95.8971 66.048 77.1688 85.1547C64.2984 98.2784 73.3568 131.782 60.6677 144.723C49.2178 156.401 31.9586 165.424 31.9586 188.14C31.9586 203.548 -9.96084 287.418 8.85892 306.611C48.8131 347.362 82.9941 393.152 108.847 434.172L108.85 434.178Z" fill="LightGrey"/>
</g>
<defs>
<filter id="filter0_f" x="0.92356" y="0.92356" width="506.153" height="506.153" filterUnits="userSpaceOnUse" color-interpolation-filters="sRGB">
<feFlood flood-opacity="0" result="BackgroundImageFix"/>
<feBlend mode="normal" in="SourceGraphic" in2="BackgroundImageFix" result="shape"/>
</filter>
</defs>
</svg>
