<svg width="513" height="513" viewBox="0 0 513 513" fill="none" xmlns="http://www.w3.org/2000/svg">
<g clip-path="url(#clip0)">
<path d="M415.035 299.968L483.699 257.053L415.711 214.561L453.718 143.064L373.593 140.258L370.76 59.336L299.966 96.969L257.051 28.305L214.559 96.293L143.062 58.286L140.256 138.411L59.334 141.244L96.967 212.038L28.303 254.953L96.291 297.445L58.284 368.942L138.409 371.748L141.242 452.67L212.036 415.037L254.951 483.701L297.443 415.713L368.94 453.72L371.746 373.595L452.668 370.762L415.035 299.968Z" fill="black"/>
<path d="M512.001 257.054L435.521 209.253L478.228 128.912L388.095 125.757L384.911 34.826L305.273 77.159L257.052 0.00300598L256.001 1.68401L196.001 256.003L256.001 510.322L302.751 435.523L383.092 478.23L386.247 388.097L477.178 384.913L434.845 305.275L512.001 257.054Z" fill="#FF2796"/>
<path d="M209.251 76.483L128.91 33.774L125.755 123.909L34.824 127.093L77.157 206.731L0.00100708 254.952L76.481 302.753L33.774 383.094L123.907 386.249L127.091 477.18L206.729 434.847L254.95 512.003L256.001 510.322V1.68401L209.251 76.483Z" fill="#FD5F6E"/>
<path d="M455.397 257.054L395.901 219.868L429.208 157.215L359.091 154.759L356.608 83.846L294.657 116.778L257.052 56.607L256.001 58.288L196.001 256.003L256.001 453.718L292.136 395.903L354.789 429.21L357.245 359.093L428.158 356.61L395.226 294.659L455.397 257.054Z" fill="#FB7A5B"/>
<path d="M219.866 116.103L157.213 82.796L154.757 152.913L83.844 155.396L116.776 217.347L56.605 254.952L116.101 292.138L82.794 354.791L152.911 357.247L155.394 428.16L217.345 395.228L254.95 455.399L256.001 453.718V58.288L219.866 116.103Z" fill="#FA9647"/>
<path d="M370.491 257.053L336.474 235.792L355.678 199.667L315.587 198.264L314.155 157.376L278.733 176.206L257.051 141.513L256.001 143.192L226.001 256.003L256.001 368.814L276.212 336.476L312.337 355.68L313.74 315.589L354.628 314.157L335.798 278.735L370.491 257.053Z" fill="#FCD999"/>
<path d="M235.79 175.53L199.665 156.327L198.262 196.417L157.374 197.849L176.204 233.271L141.511 254.953L175.528 276.214L156.324 312.339L196.415 313.742L197.847 354.63L233.269 335.8L254.951 370.493L256.001 368.814V143.192L235.79 175.53Z" fill="white"/>
</g>
<defs>
<clipPath id="clip0">
<rect width="512.006" height="512.006" fill="white"/>
</clipPath>
</defs>
</svg>
