<svg width="513" height="513" viewBox="0 0 513 513" fill="none" xmlns="http://www.w3.org/2000/svg">
<g clip-path="url(#clip0)">
<path d="M365.452 308.98C329.729 309.704 295.206 296.022 269.678 271.023C247.469 249.423 217.501 237.648 186.526 238.363C160.451 238.019 134.967 246.202 113.967 261.667C111.292 263.759 108.009 264.907 104.61 264.933C100.064 264.898 95.756 262.903 92.782 259.46C89.825 256.062 88.227 251.692 88.28 247.19V48.314C88.28 43.45 90.222 38.781 93.665 35.338C118.981 12.158 152.207 -0.473998 186.526 0.0290018C222.311 -0.729998 256.896 12.943 282.477 37.986C304.633 59.56 334.531 71.326 365.452 70.646C386.717 70.84 407.672 65.517 426.271 55.199C428.593 53.804 431.241 53.045 433.951 52.992C443.29 53.425 450.546 61.298 450.193 70.646V271.463C450.361 277.43 447.501 283.071 442.602 286.469C419.686 301.468 392.834 309.306 365.452 308.98Z" fill="#E64C3C"/>
<path d="M79.453 0.0299988C89.207 0.0299988 97.107 7.93 97.107 17.684V494.349C97.107 504.103 89.207 512.003 79.453 512.003C69.699 512.003 61.799 504.103 61.799 494.349V17.684C61.799 7.939 69.699 0.0299988 79.453 0.0299988Z" fill="black"/>
</g>
<defs>
<clipPath id="clip0">
<rect width="512.004" height="512.004" fill="white"/>
</clipPath>
</defs>
</svg>
