<svg width="980" height="712" viewBox="0 0 980 712" xmlns="http://www.w3.org/2000/svg">
<path d="M889.3 622.6V446.1H802.9V623.3H712.8V710.9H503.6V622.6H712.8V534.4H267.9V622.6L446.9 623.2V711.4H267.2V623.8H177.1V445.5H90.7V622H0V354.8H88.9V269H177.1V178.3H267.8V89.4H356.7V178.5L623.3 179.2V89.4H712.2V179.5H802.9V267.8H890.5V356H980V622.6H889.3ZM356.7 267.1H267.8V356H356.7V267.1V267.1ZM712.2 267.1H623.3V356H712.2V267.1ZM177.1 0.5H267.8V89.4H177.1V0.5V0.5ZM802.9 0.5V89.4H712.2V0.5H802.9Z"/>
</svg>