<?xml version="1.0" standalone="no"?>
<!DOCTYPE svg PUBLIC "-//W3C//DTD SVG 20010904//EN"
 "http://www.w3.org/TR/2001/REC-SVG-20010904/DTD/svg10.dtd">
<svg version="1.0" xmlns="http://www.w3.org/2000/svg"
 width="739.000000pt" height="739.000000pt" viewBox="0 0 739.000000 739.000000"
 preserveAspectRatio="xMidYMid meet">
<metadata>
Created by potrace 1.11, written by Peter Selinger 2001-2013
</metadata>
<g transform="translate(0.000000,739.000000) scale(0.100000,-0.100000)"
fill="#000000" stroke="none">
<path d="M1330 6070 c0 -265 3 -340 13 -341 71 -4 660 0 665 5 3 4 6 156 6
339 l0 332 -342 3 -342 2 0 -340z"/>
<path d="M5370 6070 l0 -340 -337 0 -338 0 0 -338 0 -337 -1003 -3 -1002 -2 0
340 0 340 -340 0 -340 0 0 -344 0 -345 -217 0 c-120 0 -271 0 -335 0 l-118 -1
-2 -332 -3 -333 -330 -1 -330 0 -3 -347 -2 -347 -335 0 -335 0 2 -1007 3
-1008 333 0 c184 0 336 3 339 8 2 4 5 307 5 672 l0 665 328 0 328 0 1 -342 c0
-189 0 -492 0 -673 l1 -330 335 0 335 0 0 -335 0 -336 680 0 c474 0 680 3 681
10 4 46 3 650 -1 659 -4 10 -143 13 -675 13 l-670 0 -3 332 -2 332 1673 0
1673 0 0 -330 0 -331 -31 -8 c-16 -4 -34 -6 -39 -3 -6 3 -1119 6 -1258 3 l-27
-1 0 -340 1 -340 683 0 683 0 -2 335 -1 335 338 0 338 0 -1 438 c-1 240 -1
544 -1 675 l1 237 330 0 330 0 0 -673 0 -672 338 0 337 0 3 1008 2 1007 -335
0 -335 0 0 344 c0 266 -3 345 -12 348 -7 2 -158 4 -335 3 l-323 -1 -1 81 c0
44 0 194 0 333 l0 252 -334 0 -335 0 -1 28 c-1 33 -1 596 0 634 l1 27 273 0
c149 0 300 0 335 0 l62 1 0 340 0 340 -340 0 -340 0 0 -340z m-2720 -1699 l25
-1 -1 -333 c-1 -182 -2 -337 -3 -342 -1 -7 -107 -11 -323 -10 l-323 0 -3 342
c-2 314 -1 342 15 345 13 2 525 2 613 -1z m2706 0 c12 -1 13 -665 1 -678 -5
-4 -152 -8 -328 -8 l-319 0 0 342 c0 312 1 342 17 345 13 2 591 1 629 -1z"/>
</g>
</svg>
